<svg width="129" height="29" viewBox="0 0 129 29" fill="none" xmlns="http://www.w3.org/2000/svg">
<path d="M10.9858 10.5653C10.9176 9.87784 10.625 9.34375 10.108 8.96307C9.59091 8.58239 8.8892 8.39204 8.00284 8.39204C7.40057 8.39204 6.89205 8.47727 6.47727 8.64773C6.0625 8.8125 5.74432 9.04261 5.52273 9.33807C5.30682 9.63352 5.19886 9.96875 5.19886 10.3438C5.1875 10.6562 5.25284 10.929 5.39489 11.1619C5.54261 11.3949 5.74432 11.5966 6 11.767C6.25568 11.9318 6.55114 12.0767 6.88636 12.2017C7.22159 12.321 7.57955 12.4233 7.96023 12.5085L9.52841 12.8835C10.2898 13.054 10.9886 13.2812 11.625 13.5653C12.2614 13.8494 12.8125 14.1989 13.2784 14.6136C13.7443 15.0284 14.1051 15.517 14.3608 16.0795C14.6222 16.642 14.7557 17.2869 14.7614 18.0142C14.7557 19.0824 14.483 20.0085 13.9432 20.7926C13.4091 21.571 12.6364 22.1761 11.625 22.608C10.6193 23.0341 9.40625 23.2472 7.9858 23.2472C6.5767 23.2472 5.34943 23.0312 4.30398 22.5994C3.2642 22.1676 2.4517 21.5284 1.86648 20.6818C1.28693 19.8295 0.982955 18.7756 0.954545 17.5199H4.52557C4.56534 18.1051 4.73295 18.5937 5.02841 18.9858C5.32955 19.3722 5.73011 19.6648 6.23011 19.8636C6.7358 20.0568 7.30682 20.1534 7.94318 20.1534C8.56818 20.1534 9.1108 20.0625 9.57102 19.8807C10.0369 19.6989 10.3977 19.446 10.6534 19.1222C10.9091 18.7983 11.0369 18.4261 11.0369 18.0057C11.0369 17.6136 10.9205 17.2841 10.6875 17.017C10.4602 16.75 10.125 16.5227 9.68182 16.3352C9.24432 16.1477 8.70739 15.9773 8.07102 15.8239L6.17045 15.3466C4.69886 14.9886 3.53693 14.429 2.68466 13.6676C1.83239 12.9062 1.40909 11.8807 1.41477 10.5909C1.40909 9.53409 1.69034 8.6108 2.25852 7.82102C2.83239 7.03125 3.61932 6.41477 4.61932 5.97159C5.61932 5.52841 6.75568 5.30682 8.02841 5.30682C9.32386 5.30682 10.4545 5.52841 11.4205 5.97159C12.392 6.41477 13.1477 7.03125 13.6875 7.82102C14.2273 8.6108 14.5057 9.52557 14.5227 10.5653H10.9858ZM23.1785 9.90909V12.6364H15.295V9.90909H23.1785ZM17.0847 6.77273H20.7154V18.9773C20.7154 19.3125 20.7666 19.5739 20.8688 19.7614C20.9711 19.9432 21.1132 20.071 21.295 20.1449C21.4825 20.2187 21.6984 20.2557 21.9427 20.2557C22.1132 20.2557 22.2836 20.2415 22.4541 20.2131C22.6245 20.179 22.7552 20.1534 22.8461 20.1364L23.4171 22.8381C23.2353 22.8949 22.9796 22.9602 22.6501 23.0341C22.3205 23.1136 21.92 23.1619 21.4484 23.179C20.5734 23.2131 19.8063 23.0966 19.1472 22.8295C18.4938 22.5625 17.9853 22.1477 17.6217 21.5852C17.258 21.0227 17.0791 20.3125 17.0847 19.4545V6.77273ZM32.9784 17.4261V9.90909H36.6091V23H33.1233V20.6222H32.987C32.6915 21.3892 32.2 22.0057 31.5125 22.4716C30.8307 22.9375 29.9983 23.1705 29.0154 23.1705C28.1404 23.1705 27.3705 22.9716 26.7057 22.5739C26.0409 22.1761 25.5211 21.6108 25.1461 20.8778C24.7767 20.1449 24.5892 19.267 24.5836 18.2443V9.90909H28.2142V17.5966C28.2199 18.3693 28.4273 18.9801 28.8364 19.429C29.2455 19.8778 29.7938 20.1023 30.4813 20.1023C30.9188 20.1023 31.3279 20.0028 31.7086 19.804C32.0892 19.5994 32.3961 19.2983 32.629 18.9006C32.8676 18.5028 32.9841 18.0114 32.9784 17.4261ZM43.3771 23.2131C42.3828 23.2131 41.4822 22.9574 40.6754 22.446C39.8743 21.929 39.2379 21.1705 38.7663 20.1705C38.3004 19.1648 38.0674 17.9318 38.0674 16.4716C38.0674 14.9716 38.3089 13.7244 38.7919 12.7301C39.2748 11.7301 39.9169 10.983 40.718 10.4886C41.5248 9.98864 42.4084 9.73864 43.3686 9.73864C44.1015 9.73864 44.7123 9.86364 45.201 10.1136C45.6953 10.358 46.093 10.6648 46.3941 11.0341C46.701 11.3977 46.9339 11.7557 47.093 12.108H47.2038V5.54545H50.826V23H47.2464V20.9034H47.093C46.9226 21.267 46.6811 21.6278 46.3686 21.9858C46.0618 22.3381 45.6612 22.6307 45.1669 22.8636C44.6782 23.0966 44.0816 23.2131 43.3771 23.2131ZM44.5277 20.3239C45.1129 20.3239 45.6072 20.1648 46.0106 19.8466C46.4197 19.5227 46.7322 19.071 46.9481 18.4915C47.1697 17.9119 47.2805 17.233 47.2805 16.4545C47.2805 15.6761 47.1726 15 46.9566 14.4261C46.7407 13.8523 46.4282 13.4091 46.0191 13.0966C45.6101 12.7841 45.1129 12.6278 44.5277 12.6278C43.9311 12.6278 43.4282 12.7898 43.0191 13.1136C42.6101 13.4375 42.3004 13.8864 42.0902 14.4602C41.8799 15.0341 41.7748 15.6989 41.7748 16.4545C41.7748 17.2159 41.8799 17.8892 42.0902 18.4744C42.3061 19.054 42.6157 19.5085 43.0191 19.8381C43.4282 20.1619 43.9311 20.3239 44.5277 20.3239ZM55.0925 27.9091C54.6323 27.9091 54.2005 27.8722 53.7971 27.7983C53.3993 27.7301 53.0698 27.642 52.8084 27.5341L53.6266 24.8239C54.0528 24.9545 54.4363 25.0256 54.7772 25.0369C55.1238 25.0483 55.4221 24.9688 55.6721 24.7983C55.9278 24.6278 56.1351 24.3381 56.2942 23.929L56.5073 23.375L51.8113 9.90909H55.6295L58.3397 19.5227H58.4761L61.2118 9.90909H65.0556L59.9675 24.4148C59.7232 25.1193 59.3908 25.733 58.9704 26.2557C58.5556 26.7841 58.03 27.1903 57.3937 27.4744C56.7573 27.7642 55.9903 27.9091 55.0925 27.9091ZM64.9308 23L67.8285 5.54545H74.8172C76.1013 5.54545 77.141 5.7358 77.9365 6.11648C78.7376 6.49716 79.2973 7.02557 79.6155 7.7017C79.9337 8.37216 80.0189 9.14489 79.8712 10.0199C79.7518 10.7017 79.5104 11.2983 79.1467 11.8097C78.7888 12.321 78.3456 12.7415 77.8172 13.071C77.2888 13.4006 76.7149 13.6335 76.0956 13.7699L76.0615 13.9403C76.7206 13.9687 77.3143 14.1562 77.8428 14.5028C78.3712 14.8437 78.766 15.3267 79.0274 15.9517C79.2888 16.5767 79.3484 17.3182 79.2064 18.1761C79.053 19.1023 78.6865 19.929 78.107 20.6562C77.5274 21.3778 76.7547 21.9489 75.7888 22.3693C74.8285 22.7898 73.695 23 72.3882 23H64.9308ZM69.1325 19.983H72.141C73.1638 19.983 73.945 19.7841 74.4848 19.3864C75.0246 18.9886 75.3484 18.4631 75.4564 17.8097C75.5303 17.3267 75.482 16.9006 75.3115 16.5312C75.1467 16.1619 74.8655 15.8722 74.4678 15.6619C74.0757 15.4517 73.5785 15.3466 72.9763 15.3466H69.891L69.1325 19.983ZM70.3172 12.8494H73.053C73.553 12.8494 74.016 12.7614 74.4422 12.5852C74.874 12.4034 75.2291 12.1477 75.5075 11.8182C75.7916 11.483 75.9706 11.0881 76.0445 10.6335C76.1467 9.99716 76.0047 9.48864 75.6183 9.10795C75.2376 8.72159 74.641 8.52841 73.8285 8.52841H71.0331L70.3172 12.8494ZM85.7016 23.2557C84.3664 23.2557 83.2613 22.9716 82.3863 22.4034C81.5113 21.8295 80.8948 21.0341 80.5369 20.017C80.1846 18.9943 80.1193 17.804 80.3409 16.446C80.5568 15.1051 81.0056 13.9318 81.6874 12.9261C82.3693 11.9205 83.2357 11.1392 84.2869 10.5824C85.338 10.0199 86.5227 9.73864 87.8409 9.73864C89.1704 9.73864 90.2727 10.0256 91.1477 10.5994C92.0227 11.1676 92.6391 11.9631 92.9971 12.9858C93.3551 14.0085 93.4232 15.1989 93.2016 16.5568C92.9801 17.892 92.5255 19.0625 91.838 20.0682C91.1505 21.0739 90.284 21.858 89.2386 22.4205C88.1931 22.9773 87.0141 23.2557 85.7016 23.2557ZM86.0596 20.4432C86.6732 20.4432 87.2159 20.2699 87.6874 19.9233C88.1647 19.571 88.5596 19.0937 88.8721 18.4915C89.1903 17.8835 89.4119 17.196 89.5369 16.429C89.6619 15.6733 89.6704 15.0028 89.5624 14.4176C89.4545 13.8267 89.2272 13.3608 88.8806 13.0199C88.5397 12.679 88.071 12.5085 87.4744 12.5085C86.8607 12.5085 86.3153 12.6847 85.838 13.0369C85.3607 13.3835 84.9659 13.8608 84.6534 14.4688C84.3409 15.0767 84.1221 15.767 83.9971 16.5398C83.8778 17.2898 83.8693 17.9602 83.9715 18.5511C84.0738 19.1364 84.2982 19.5994 84.6448 19.9403C84.9914 20.2756 85.463 20.4432 86.0596 20.4432ZM99.4604 23.2557C98.1252 23.2557 97.0201 22.9716 96.1451 22.4034C95.2701 21.8295 94.6536 21.0341 94.2956 20.017C93.9434 18.9943 93.878 17.804 94.0996 16.446C94.3155 15.1051 94.7644 13.9318 95.4462 12.9261C96.128 11.9205 96.9945 11.1392 98.0456 10.5824C99.0968 10.0199 100.281 9.73864 101.6 9.73864C102.929 9.73864 104.031 10.0256 104.906 10.5994C105.781 11.1676 106.398 11.9631 106.756 12.9858C107.114 14.0085 107.182 15.1989 106.96 16.5568C106.739 17.892 106.284 19.0625 105.597 20.0682C104.909 21.0739 104.043 21.858 102.997 22.4205C101.952 22.9773 100.773 23.2557 99.4604 23.2557ZM99.8184 20.4432C100.432 20.4432 100.975 20.2699 101.446 19.9233C101.923 19.571 102.318 19.0937 102.631 18.4915C102.949 17.8835 103.171 17.196 103.296 16.429C103.421 15.6733 103.429 15.0028 103.321 14.4176C103.213 13.8267 102.986 13.3608 102.639 13.0199C102.298 12.679 101.83 12.5085 101.233 12.5085C100.619 12.5085 100.074 12.6847 99.5968 13.0369C99.1195 13.3835 98.7246 13.8608 98.4121 14.4688C98.0996 15.0767 97.8809 15.767 97.7559 16.5398C97.6365 17.2898 97.628 17.9602 97.7303 18.5511C97.8326 19.1364 98.057 19.5994 98.4036 19.9403C98.7502 20.2756 99.2218 20.4432 99.8184 20.4432ZM128.949 9.90909L128.497 12.6364H120.605L121.065 9.90909H128.949ZM123.366 6.77273H126.997L124.969 18.9773C124.912 19.3125 124.92 19.5739 124.994 19.7614C125.068 19.9432 125.19 20.071 125.361 20.1449C125.537 20.2187 125.747 20.2557 125.991 20.2557C126.162 20.2557 126.335 20.2415 126.511 20.2131C126.687 20.179 126.821 20.1534 126.912 20.1364L127.048 22.8381C126.844 22.9006 126.568 22.9687 126.222 23.0426C125.881 23.1165 125.477 23.1619 125.011 23.179C124.125 23.2131 123.375 23.0966 122.761 22.8295C122.148 22.5568 121.707 22.1392 121.44 21.5767C121.173 21.0142 121.116 20.3068 121.27 19.4545L123.366 6.77273Z" fill="url(#paint0_linear_212_308)"/>
<path d="M66 28.9147C75.211 24.1128 100.259 16.5391 126.763 24.6602C113.617 23.777 83.0606 23.3914 66 28.9147Z" fill="url(#paint1_linear_212_308)"/>
<path d="M119.36 13.9034L116.061 14.108C116.044 13.8182 115.965 13.5597 115.823 13.3324C115.686 13.0994 115.485 12.9148 115.218 12.7784C114.956 12.642 114.627 12.5739 114.229 12.5739C113.632 12.5739 113.101 12.7102 112.635 12.983C112.169 13.2557 111.905 13.6051 111.843 14.0312C111.792 14.304 111.863 14.5341 112.056 14.7216C112.249 14.9091 112.638 15.0682 113.223 15.1989L115.525 15.6761C116.752 15.9375 117.638 16.3722 118.184 16.9801C118.735 17.5881 118.931 18.3835 118.772 19.3665C118.63 20.2017 118.263 20.9318 117.672 21.5568C117.081 22.1761 116.331 22.6591 115.422 23.0057C114.513 23.3466 113.505 23.517 112.397 23.517C110.618 23.517 109.266 23.1534 108.34 22.4261C107.414 21.6989 106.968 20.7131 107.002 19.4688L110.547 19.2812C110.576 19.8153 110.763 20.2188 111.11 20.4915C111.456 20.7585 111.931 20.8949 112.533 20.9006C113.209 20.9119 113.783 20.7727 114.255 20.483C114.732 20.1875 115.002 19.8295 115.064 19.4091C115.11 19.1136 115.025 18.875 114.809 18.6932C114.598 18.5114 114.212 18.3608 113.65 18.2415L111.468 17.7898C110.229 17.5341 109.34 17.0767 108.8 16.4176C108.26 15.7585 108.076 14.9205 108.246 13.9034C108.382 13.0909 108.721 12.3949 109.26 11.8153C109.806 11.2301 110.507 10.7812 111.365 10.4688C112.229 10.1562 113.204 10 114.289 10C115.988 10 117.266 10.3494 118.124 11.0483C118.988 11.7472 119.4 12.6989 119.36 13.9034Z" fill="url(#paint2_linear_212_308)"/>
<defs>
<linearGradient id="paint0_linear_212_308" x1="0" y1="14.5" x2="129" y2="14.5" gradientUnits="userSpaceOnUse">
<stop stop-color="#0057FF"/>
<stop offset="1" stop-color="#41C0C0"/>
</linearGradient>
<linearGradient id="paint1_linear_212_308" x1="66.6192" y1="22.9425" x2="126.299" y2="29.1301" gradientUnits="userSpaceOnUse">
<stop stop-color="#0057FF"/>
<stop offset="1" stop-color="#41C0C0"/>
</linearGradient>
<linearGradient id="paint2_linear_212_308" x1="107" y1="16.7585" x2="119.362" y2="16.7585" gradientUnits="userSpaceOnUse">
<stop stop-color="#0057FF"/>
<stop offset="1" stop-color="#41C0C0"/>
</linearGradient>
</defs>
</svg>
